<svg version="1" xmlns="http://www.w3.org/2000/svg" width="346.667" height="346.667" viewBox="0 0 260.000000 260.000000"><path d="M81.3 62.6c-43.1 33-49.3 38-49.3 40.3.1 4.1 36.6 120.2 38.1 121.2 1.8 1.1 121 1.1 122.8 0 1.5-1 38-118.1 38.1-122.2 0-2.2-6.3-7.3-48.7-39.4-26.9-20.2-49.5-37-50.3-37.2-.8-.2-22.9 16-50.7 37.3zm95.4 6.1c24.5 18.5 44.7 34.2 45 34.9.2.6-7.1 25.4-16.2 55-9.1 29.7-16.8 54.7-17.1 55.6-.5 1.7-4.1 1.8-56.9 1.8H75.1l-.9-3.2c-.5-1.8-8.3-26.8-17.2-55.6-14.8-47.6-16.1-52.5-14.7-53.9 2.5-2.5 88.1-68.1 89-68.2.4-.1 20.8 15.1 45.4 33.6z"/><path d="M93 76.5c-31.2 23.9-37.5 29.1-37.8 31.3-.3 3.4 27.3 92.3 29 93.4 1.7 1 92.9 1 94.6 0 1.9-1.3 30.1-93.4 29.1-95.3-1-1.9-73.5-57-75.8-57.6C131 48 116.7 58.4 93 76.5zm72.3 6.6c18.3 13.8 33.4 25.5 33.6 26.1.1.5-5.4 19.6-12.5 42.4L173.6 193H89.4l-12.8-41.1c-7-22.5-12.6-41.5-12.4-42.1.4-1.1 65.8-51.6 67.1-51.7.4-.1 15.7 11.2 34 25z"/><path d="M107.5 86.6C77.8 109.3 76 110.8 76 112.8c0 2.6 19 63.4 20.6 65.9L98 181h67l1.4-2.3c1.7-2.6 20.6-63.7 20.6-66.5 0-1.4-8.1-8.1-27.3-22.6C144.7 78.3 132 69 131.5 69c-.6 0-11.3 7.9-24 17.6zm47.3 9.6c12.5 9.4 22.9 17.3 23.1 17.5.2.1-3.6 13.3-8.5 29.3l-8.9 29h-58l-8.8-28.6c-7.3-23.6-8.6-28.9-7.5-29.9 2.1-2 45-34.5 45.4-34.5.2 0 10.7 7.7 23.2 17.2z"/><path d="M114.3 104.3c-8.4 6.2-15.5 11.9-15.8 12.8-.3.8 2.3 10 5.7 20.5l6.3 18.9h42l6.3-18.9c3.4-10.4 6-19.6 5.7-20.5-.8-2.2-30.9-24.1-33.1-24.1-1.1.1-8.8 5.1-17.1 11.3zm30.3 7.4l11.1 8.3-4.5 14.5-4.6 14.5h-30.2l-4.6-14.5-4.6-14.6 12.1-8.9c6.6-4.9 12.5-8.6 13.1-8.3.6.4 6.1 4.4 12.2 9z"/></svg>